<mxfile host="app.diagrams.net" modified="2022-02-10T19:22:10.438Z" agent="5.0 (Windows NT 10.0; Win64; x64) AppleWebKit/537.36 (KHTML, like Gecko) Chrome/98.0.4758.87 Safari/537.36" etag="AQKTlKbfzaQQceUW1moC" version="16.5.4" type="github">
  <diagram id="kfinT-BCKHiaZusBY4Pr" name="Page-1">
    <mxGraphModel dx="868" dy="496" grid="1" gridSize="10" guides="1" tooltips="1" connect="1" arrows="1" fold="1" page="1" pageScale="1" pageWidth="1169" pageHeight="827" math="0" shadow="0">
      <root>
        <mxCell id="0" />
        <mxCell id="1" parent="0" />
        <mxCell id="80QCjHkP1U3Y7Aqf0_-P-11" style="edgeStyle=orthogonalEdgeStyle;rounded=0;orthogonalLoop=1;jettySize=auto;html=1;exitX=0.5;exitY=1;exitDx=0;exitDy=0;strokeColor=#000000;" edge="1" parent="1" source="80QCjHkP1U3Y7Aqf0_-P-1" target="80QCjHkP1U3Y7Aqf0_-P-5">
          <mxGeometry relative="1" as="geometry" />
        </mxCell>
        <mxCell id="80QCjHkP1U3Y7Aqf0_-P-1" value="" style="ellipse;html=1;shape=startState;fillColor=#000000;strokeColor=#000000;" vertex="1" parent="1">
          <mxGeometry x="340" y="120" width="30" height="30" as="geometry" />
        </mxCell>
        <mxCell id="80QCjHkP1U3Y7Aqf0_-P-12" style="edgeStyle=orthogonalEdgeStyle;rounded=0;orthogonalLoop=1;jettySize=auto;html=1;exitX=1;exitY=0.5;exitDx=0;exitDy=0;strokeColor=#000000;" edge="1" parent="1" source="80QCjHkP1U3Y7Aqf0_-P-5" target="80QCjHkP1U3Y7Aqf0_-P-10">
          <mxGeometry relative="1" as="geometry" />
        </mxCell>
        <mxCell id="80QCjHkP1U3Y7Aqf0_-P-16" value="cliente reservou&lt;br&gt;antes de utilizar" style="edgeLabel;html=1;align=center;verticalAlign=middle;resizable=0;points=[];" vertex="1" connectable="0" parent="80QCjHkP1U3Y7Aqf0_-P-12">
          <mxGeometry x="-0.2174" relative="1" as="geometry">
            <mxPoint as="offset" />
          </mxGeometry>
        </mxCell>
        <mxCell id="80QCjHkP1U3Y7Aqf0_-P-14" style="edgeStyle=orthogonalEdgeStyle;rounded=0;orthogonalLoop=1;jettySize=auto;html=1;exitX=0.5;exitY=1;exitDx=0;exitDy=0;strokeColor=#000000;" edge="1" parent="1" source="80QCjHkP1U3Y7Aqf0_-P-5" target="80QCjHkP1U3Y7Aqf0_-P-13">
          <mxGeometry relative="1" as="geometry">
            <Array as="points">
              <mxPoint x="355" y="300" />
              <mxPoint x="430" y="300" />
            </Array>
          </mxGeometry>
        </mxCell>
        <mxCell id="80QCjHkP1U3Y7Aqf0_-P-17" value="cliente não reservou antes&lt;br&gt;de utilizar" style="edgeLabel;html=1;align=center;verticalAlign=middle;resizable=0;points=[];" vertex="1" connectable="0" parent="80QCjHkP1U3Y7Aqf0_-P-14">
          <mxGeometry x="0.2909" relative="1" as="geometry">
            <mxPoint y="19" as="offset" />
          </mxGeometry>
        </mxCell>
        <mxCell id="80QCjHkP1U3Y7Aqf0_-P-5" value="&lt;p style=&quot;margin: 0px ; margin-top: 4px ; text-align: center&quot;&gt;&lt;b&gt;Apartamento livre&lt;/b&gt;&lt;/p&gt;&lt;hr size=&quot;1&quot;&gt;&lt;div style=&quot;height: 2px&quot;&gt;&lt;/div&gt;&lt;hr size=&quot;1&quot;&gt;&lt;div style=&quot;height: 2px&quot;&gt;&lt;/div&gt;" style="verticalAlign=top;align=left;overflow=fill;fontSize=12;fontFamily=Helvetica;html=1;strokeColor=#000000;" vertex="1" parent="1">
          <mxGeometry x="285" y="220" width="140" height="60" as="geometry" />
        </mxCell>
        <mxCell id="80QCjHkP1U3Y7Aqf0_-P-21" style="edgeStyle=orthogonalEdgeStyle;rounded=0;orthogonalLoop=1;jettySize=auto;html=1;exitX=0.25;exitY=0;exitDx=0;exitDy=0;entryX=0.75;entryY=0;entryDx=0;entryDy=0;strokeColor=#000000;" edge="1" parent="1" source="80QCjHkP1U3Y7Aqf0_-P-10" target="80QCjHkP1U3Y7Aqf0_-P-5">
          <mxGeometry relative="1" as="geometry">
            <Array as="points">
              <mxPoint x="615" y="150" />
              <mxPoint x="390" y="150" />
            </Array>
          </mxGeometry>
        </mxCell>
        <mxCell id="80QCjHkP1U3Y7Aqf0_-P-22" value="cliente cancelou a reserva" style="edgeLabel;html=1;align=center;verticalAlign=middle;resizable=0;points=[];" vertex="1" connectable="0" parent="80QCjHkP1U3Y7Aqf0_-P-21">
          <mxGeometry x="0.1014" y="-3" relative="1" as="geometry">
            <mxPoint as="offset" />
          </mxGeometry>
        </mxCell>
        <mxCell id="80QCjHkP1U3Y7Aqf0_-P-23" style="edgeStyle=orthogonalEdgeStyle;rounded=0;orthogonalLoop=1;jettySize=auto;html=1;exitX=0.25;exitY=1;exitDx=0;exitDy=0;entryX=1;entryY=0.5;entryDx=0;entryDy=0;strokeColor=#000000;" edge="1" parent="1" source="80QCjHkP1U3Y7Aqf0_-P-10" target="80QCjHkP1U3Y7Aqf0_-P-13">
          <mxGeometry relative="1" as="geometry" />
        </mxCell>
        <mxCell id="80QCjHkP1U3Y7Aqf0_-P-24" value="cliente que havia&lt;br&gt;reservado começou&lt;br&gt;a utilizar" style="edgeLabel;html=1;align=center;verticalAlign=middle;resizable=0;points=[];" vertex="1" connectable="0" parent="80QCjHkP1U3Y7Aqf0_-P-23">
          <mxGeometry x="0.3407" y="-4" relative="1" as="geometry">
            <mxPoint as="offset" />
          </mxGeometry>
        </mxCell>
        <mxCell id="80QCjHkP1U3Y7Aqf0_-P-10" value="&lt;p style=&quot;margin: 0px ; margin-top: 4px ; text-align: center&quot;&gt;&lt;b&gt;Apartamento Reservado&lt;/b&gt;&lt;/p&gt;&lt;hr size=&quot;1&quot;&gt;&lt;div style=&quot;height: 2px&quot;&gt;&lt;/div&gt;&lt;hr size=&quot;1&quot;&gt;&lt;div style=&quot;height: 2px&quot;&gt;&lt;/div&gt;" style="verticalAlign=top;align=left;overflow=fill;fontSize=12;fontFamily=Helvetica;html=1;strokeColor=#000000;" vertex="1" parent="1">
          <mxGeometry x="580" y="220" width="140" height="60" as="geometry" />
        </mxCell>
        <mxCell id="80QCjHkP1U3Y7Aqf0_-P-18" style="edgeStyle=orthogonalEdgeStyle;rounded=0;orthogonalLoop=1;jettySize=auto;html=1;exitX=0;exitY=0.5;exitDx=0;exitDy=0;strokeColor=#000000;entryX=0.25;entryY=1;entryDx=0;entryDy=0;" edge="1" parent="1" source="80QCjHkP1U3Y7Aqf0_-P-13" target="80QCjHkP1U3Y7Aqf0_-P-27">
          <mxGeometry relative="1" as="geometry">
            <mxPoint x="150" y="280" as="targetPoint" />
            <Array as="points">
              <mxPoint x="265" y="480" />
              <mxPoint x="98" y="480" />
              <mxPoint x="98" y="410" />
            </Array>
          </mxGeometry>
        </mxCell>
        <mxCell id="80QCjHkP1U3Y7Aqf0_-P-19" value="cliente não pagou&lt;br&gt;a estadia" style="edgeLabel;html=1;align=center;verticalAlign=middle;resizable=0;points=[];" vertex="1" connectable="0" parent="80QCjHkP1U3Y7Aqf0_-P-18">
          <mxGeometry x="0.1176" y="-3" relative="1" as="geometry">
            <mxPoint as="offset" />
          </mxGeometry>
        </mxCell>
        <mxCell id="80QCjHkP1U3Y7Aqf0_-P-25" style="edgeStyle=orthogonalEdgeStyle;rounded=0;orthogonalLoop=1;jettySize=auto;html=1;exitX=0.25;exitY=0;exitDx=0;exitDy=0;entryX=0.75;entryY=1;entryDx=0;entryDy=0;strokeColor=#000000;" edge="1" parent="1" source="80QCjHkP1U3Y7Aqf0_-P-13" target="80QCjHkP1U3Y7Aqf0_-P-27">
          <mxGeometry relative="1" as="geometry">
            <Array as="points">
              <mxPoint x="310" y="430" />
              <mxPoint x="173" y="430" />
            </Array>
          </mxGeometry>
        </mxCell>
        <mxCell id="80QCjHkP1U3Y7Aqf0_-P-26" value="acabou o tempo de&lt;br&gt;estadia" style="edgeLabel;html=1;align=center;verticalAlign=middle;resizable=0;points=[];" vertex="1" connectable="0" parent="80QCjHkP1U3Y7Aqf0_-P-25">
          <mxGeometry x="-0.13" y="1" relative="1" as="geometry">
            <mxPoint x="-4" y="-1" as="offset" />
          </mxGeometry>
        </mxCell>
        <mxCell id="80QCjHkP1U3Y7Aqf0_-P-13" value="&lt;p style=&quot;margin: 0px ; margin-top: 4px ; text-align: center&quot;&gt;&lt;b&gt;Apartamento indisponível&lt;/b&gt;&lt;/p&gt;&lt;hr size=&quot;1&quot;&gt;&lt;div style=&quot;height: 2px&quot;&gt;&lt;/div&gt;&lt;hr size=&quot;1&quot;&gt;&lt;div style=&quot;height: 2px&quot;&gt;&lt;/div&gt;" style="verticalAlign=top;align=left;overflow=fill;fontSize=12;fontFamily=Helvetica;html=1;strokeColor=#000000;" vertex="1" parent="1">
          <mxGeometry x="265" y="500" width="180" height="60" as="geometry" />
        </mxCell>
        <mxCell id="80QCjHkP1U3Y7Aqf0_-P-28" style="edgeStyle=orthogonalEdgeStyle;rounded=0;orthogonalLoop=1;jettySize=auto;html=1;exitX=0.5;exitY=0;exitDx=0;exitDy=0;entryX=0;entryY=0.5;entryDx=0;entryDy=0;strokeColor=#000000;" edge="1" parent="1" source="80QCjHkP1U3Y7Aqf0_-P-27" target="80QCjHkP1U3Y7Aqf0_-P-5">
          <mxGeometry relative="1" as="geometry" />
        </mxCell>
        <mxCell id="80QCjHkP1U3Y7Aqf0_-P-32" value="apartamento terminou&lt;br&gt;de limpar" style="edgeLabel;html=1;align=center;verticalAlign=middle;resizable=0;points=[];" vertex="1" connectable="0" parent="80QCjHkP1U3Y7Aqf0_-P-28">
          <mxGeometry x="0.1714" y="1" relative="1" as="geometry">
            <mxPoint as="offset" />
          </mxGeometry>
        </mxCell>
        <mxCell id="80QCjHkP1U3Y7Aqf0_-P-27" value="&lt;p style=&quot;margin: 0px ; margin-top: 4px ; text-align: center&quot;&gt;&lt;b&gt;Apartamento em limpeza&lt;/b&gt;&lt;/p&gt;&lt;hr size=&quot;1&quot;&gt;&lt;div style=&quot;height: 2px&quot;&gt;&lt;/div&gt;&lt;hr size=&quot;1&quot;&gt;&lt;div style=&quot;height: 2px&quot;&gt;&lt;/div&gt;" style="verticalAlign=top;align=left;overflow=fill;fontSize=12;fontFamily=Helvetica;html=1;strokeColor=#000000;" vertex="1" parent="1">
          <mxGeometry x="60" y="310" width="150" height="60" as="geometry" />
        </mxCell>
        <mxCell id="80QCjHkP1U3Y7Aqf0_-P-29" style="edgeStyle=orthogonalEdgeStyle;rounded=0;orthogonalLoop=1;jettySize=auto;html=1;exitX=0;exitY=0.5;exitDx=0;exitDy=0;strokeColor=#000000;entryX=0.25;entryY=0;entryDx=0;entryDy=0;" edge="1" parent="1" source="80QCjHkP1U3Y7Aqf0_-P-27" target="80QCjHkP1U3Y7Aqf0_-P-27">
          <mxGeometry relative="1" as="geometry">
            <mxPoint x="150" y="210" as="targetPoint" />
            <Array as="points">
              <mxPoint x="40" y="340" />
              <mxPoint x="40" y="260" />
              <mxPoint x="98" y="260" />
            </Array>
          </mxGeometry>
        </mxCell>
        <mxCell id="80QCjHkP1U3Y7Aqf0_-P-30" value="apartamento &lt;br&gt;ainda&lt;br&gt;sujo" style="edgeLabel;html=1;align=center;verticalAlign=middle;resizable=0;points=[];" vertex="1" connectable="0" parent="80QCjHkP1U3Y7Aqf0_-P-29">
          <mxGeometry x="0.0699" y="-3" relative="1" as="geometry">
            <mxPoint as="offset" />
          </mxGeometry>
        </mxCell>
      </root>
    </mxGraphModel>
  </diagram>
</mxfile>
